<?xml version="1.0" encoding="iso-8859-1"?>
<!-- Generator: Adobe Illustrator 19.0.0, SVG Export Plug-In . SVG Version: 6.00 Build 0)  -->
<svg version="1.1" id="Layer_1" xmlns="http://www.w3.org/2000/svg" xmlns:xlink="http://www.w3.org/1999/xlink" x="0px" y="0px"
	 viewBox="0 0 392.533 392.533" style="enable-background:new 0 0 392.533 392.533;" xml:space="preserve">
<path style="fill:#FFFFFF;" d="M21.786,40.21v162.651c5.495-2.844,11.636-4.461,18.295-4.461h151.208V21.915H40.081
	C29.996,21.915,21.786,30.125,21.786,40.21z"/>
<rect x="79.838" y="67.879" style="fill:#FFC10D;" width="53.398" height="40.081"/>
<path style="fill:#194F82;" d="M144.162,46.093H68.913c-6.012,0-10.925,4.848-10.925,10.925v61.996
	c0,6.012,4.848,10.925,10.925,10.925h75.184c6.012,0,10.925-4.848,10.925-10.925V57.018
	C155.087,50.941,150.238,46.093,144.162,46.093z M133.236,108.089H79.838v-40.21h53.398V108.089z"/>
<path style="fill:#FFC10D;" d="M21.786,238.481c0,10.149,8.21,18.295,18.295,18.295h151.208v-36.525H40.081
	C29.996,220.186,21.786,228.396,21.786,238.481z"/>
<path style="fill:#56ACE0;" d="M369.713,275.459h-109.77c-0.646,4.719-0.905,9.632-0.905,14.61
	c0,44.606,25.018,80.808,55.855,80.808s55.855-36.267,55.855-80.808C370.747,285.026,370.36,280.178,369.713,275.459z"/>
<path style="fill:#FFFFFF;" d="M303.968,253.673v-20.17c0-6.012,4.848-10.925,10.925-10.925c6.012,0,10.925,4.848,10.925,10.925
	v20.17h38.853c-9.18-26.246-28.057-44.347-49.778-44.347c-21.721,0-40.598,18.101-49.778,44.347H303.968z"/>
<path style="fill:#194F82;" d="M325.754,188.574V110.61c0-6.012-4.849-10.925-10.925-10.925H213.139V10.99
	c0-6.012-4.848-10.925-10.925-10.925H40.081C17.972,0.065,0,18.101,0,40.145v198.271c0,22.109,18.036,40.081,40.081,40.081h162.133
	c6.012,0,10.925-4.848,10.925-10.925V121.471h90.893v66.974c-37.689,7.046-66.78,49.778-66.78,101.43
	c0,56.566,34.844,102.594,77.64,102.594s77.64-46.028,77.64-102.594C392.533,238.352,363.378,195.62,325.754,188.574z
	 M191.354,220.186v36.525H40.081c-10.02,0-18.295-8.21-18.295-18.295c0-10.02,8.21-18.295,18.295-18.295h151.208v0.065H191.354z
	 M191.354,198.4H40.081c-6.594,0-12.8,1.616-18.295,4.461V40.21c0-10.149,8.21-18.295,18.295-18.295h151.208V198.4H191.354z
	 M314.893,370.877c-30.836,0-55.855-36.267-55.855-80.808c0-5.042,0.388-9.891,0.905-14.61h109.834
	c0.646,4.719,0.905,9.632,0.905,14.61C370.747,334.61,345.665,370.877,314.893,370.877z M314.893,209.196
	c21.721,0,40.598,18.101,49.778,44.347h-38.853v-20.17c0-6.012-4.848-10.925-10.925-10.925c-6.012,0-10.925,4.848-10.925,10.925
	v20.17h-38.853C274.295,227.362,293.172,209.196,314.893,209.196z"/>
<g>
</g>
<g>
</g>
<g>
</g>
<g>
</g>
<g>
</g>
<g>
</g>
<g>
</g>
<g>
</g>
<g>
</g>
<g>
</g>
<g>
</g>
<g>
</g>
<g>
</g>
<g>
</g>
<g>
</g>
</svg>
