<?xml version="1.0" encoding="UTF-8" standalone="no"?>
<!-- Generator: Adobe Illustrator 16.0.0, SVG Export Plug-In . SVG Version: 6.00 Build 0)  -->

<svg
   version="1.1"
   id="Capa_1"
   x="0px"
   y="0px"
   width="31.093px"
   height="31.093px"
   viewBox="0 0 31.093 31.093"
   style="enable-background:new 0 0 31.093 31.093;"
   xml:space="preserve"
   sodipodi:docname="Students.svg"
   inkscape:version="1.2 (dc2aedaf03, 2022-05-15)"
   xmlns:inkscape="http://www.inkscape.org/namespaces/inkscape"
   xmlns:sodipodi="http://sodipodi.sourceforge.net/DTD/sodipodi-0.dtd"
   xmlns="http://www.w3.org/2000/svg"
   xmlns:svg="http://www.w3.org/2000/svg"><defs
   id="defs127">
	
</defs><sodipodi:namedview
   id="namedview125"
   pagecolor="#ffffff"
   bordercolor="#000000"
   borderopacity="0.25"
   inkscape:showpageshadow="2"
   inkscape:pageopacity="0.0"
   inkscape:pagecheckerboard="0"
   inkscape:deskcolor="#d1d1d1"
   showgrid="false"
   inkscape:zoom="33.029942"
   inkscape:cx="15.531362"
   inkscape:cy="15.531362"
   inkscape:window-width="3840"
   inkscape:window-height="2066"
   inkscape:window-x="2869"
   inkscape:window-y="-11"
   inkscape:window-maximized="1"
   inkscape:current-layer="Capa_1" />
<path
   d="m 25.257,25.234 h -2.998 v -4.275 h 0.478 0.614 0.869 l 0.844,0.98 0.818,-0.98 h 0.819 0.547 0.422 l 10e-4,0.061 c -1.541,0.037 -2.781,1.291 -2.781,2.842 0,0.501 0.141,0.966 0.367,1.372 z m 0.129,-1.373 c 0,1.299 1.053,2.352 2.353,2.352 1.298,0 2.351,-1.053 2.351,-2.352 0,-1.299 -1.053,-2.353 -2.351,-2.353 -1.3,0.001 -2.353,1.054 -2.353,2.353 z m 5.373,2.701 H 30.31 29.732 28.867 l -0.868,1.041 -0.894,-1.041 h -0.922 -0.65 -0.506 v 4.53 h 5.863 z m -8.16,-8.152 c 0,1.227 0.994,2.219 2.22,2.219 1.225,0 2.219,-0.992 2.219,-2.219 0,-1.225 -0.994,-2.219 -2.219,-2.219 -1.226,0 -2.22,0.995 -2.22,2.219 z m -0.412,-0.075 c 0,-1.448 1.16,-2.623 2.602,-2.655 L 24.788,15.624 H 24.392 23.88 23.116 l -0.768,0.918 -0.789,-0.918 h -0.812 -0.573 -0.447 v 3.999 h 2.805 C 22.32,19.238 22.187,18.807 22.187,18.335 Z m -2.141,-5.094 c 0,1.145 0.93,2.074 2.074,2.074 1.144,0 2.074,-0.929 2.074,-2.074 0,-1.146 -0.93,-2.074 -2.074,-2.074 -1.144,0 -2.074,0.929 -2.074,2.074 z M 7.743,20.791 H 6.874 L 6.03,21.771 5.211,20.791 H 4.393 3.847 3.424 L 3.423,20.85 c 1.541,0.036 2.781,1.291 2.781,2.842 0,0.502 -0.142,0.967 -0.368,1.375 H 8.835 V 20.792 H 8.356 7.743 Z m -6.739,2.9 c 0,1.299 1.053,2.352 2.351,2.352 1.299,0 2.352,-1.053 2.352,-2.352 0,-1.299 -1.053,-2.353 -2.352,-2.353 -1.297,10e-4 -2.351,1.055 -2.351,2.353 z M 4.91,26.393 H 3.99 L 3.095,27.432 2.227,26.393 H 1.361 0.782 0.334 l -0.132,4.53 h 5.864 v -4.53 H 5.561 Z M 4.057,18.24 c 0,1.225 0.994,2.219 2.22,2.219 1.225,0 2.219,-0.994 2.219,-2.219 0,-1.227 -0.994,-2.221 -2.219,-2.221 -1.226,0.001 -2.22,0.995 -2.22,2.221 z m 6.287,-2.787 v 0 L 9.532,15.454 8.743,16.373 7.976,15.455 H 7.211 6.701 6.307 L 6.306,15.51 c 1.44,0.033 2.601,1.207 2.601,2.656 0,0.469 -0.133,0.902 -0.345,1.285 h 2.804 V 15.453 H 10.92 Z M 6.897,13.071 c 0,1.146 0.929,2.074 2.074,2.074 1.145,0 2.074,-0.929 2.074,-2.074 0,-1.145 -0.929,-2.074 -2.074,-2.074 -1.145,0 -2.074,0.929 -2.074,2.074 z M 26.554,0 H 5.871 V 0.726 H 26.555 V 0 Z m 0,9.39 H 5.871 v 0.726 H 26.555 V 9.39 Z M 16.157,3.295 c 0.866,0 1.502,1.868 1.502,2.662 0,0.629 -0.371,1.196 -0.931,1.434 V 7.706 L 16.687,7.73 16.693,7.853 15.685,7.965 V 7.809 C 15.648,7.782 15.621,7.732 15.621,7.646 V 7.406 C 15.04,7.177 14.655,6.605 14.655,5.957 14.654,5.163 15.288,3.295 16.157,3.295 Z m -1.29,2.662 c 0,0.584 0.358,1.096 0.894,1.275 l 0.072,0.024 V 7.63 C 15.85,7.628 15.867,7.628 15.887,7.628 l 0.521,-0.049 c 0.057,0 0.089,-0.002 0.109,-0.004 V 7.246 L 16.585,7.22 c 0.514,-0.188 0.86,-0.697 0.86,-1.263 0,-0.785 -0.611,-2.45 -1.291,-2.45 -0.678,0 -1.288,1.665 -1.287,2.45 z m 1.826,1.981 -1.007,0.111 v 0.075 c -0.009,0.04 0.003,0.092 0.012,0.12 l 0.013,0.043 0.932,-0.104 0.045,-0.015 0.002,-0.046 c 0.004,-0.014 0.007,-0.041 0.007,-0.126 z m -0.914,0.508 c 0.09,0.101 0.23,0.152 0.418,0.153 h 0.006 c 0.318,0 0.43,-0.141 0.465,-0.262 L 16.689,8.26 15.709,8.368 Z M 19.656,5.684 V 5.351 H 18.3 v 0.333 z m -6.886,0 h 1.356 V 5.351 H 12.77 Z m 3.596,-4.14 H 16.034 V 2.9 h 0.332 z M 17.235,3.213 17.503,3.411 18.31,2.32 18.042,2.122 Z M 17.92,4.128 18.024,4.443 19.313,4.016 19.209,3.701 Z M 13.077,4.016 14.365,4.445 14.469,4.129 13.183,3.7 Z M 14.116,2.321 14.923,3.412 15.191,3.215 14.384,2.124 Z M 2.772,4.426 c 0.976,0 1.766,-0.79 1.766,-1.765 0,-0.975 -0.79,-1.765 -1.766,-1.765 -0.975,0 -1.765,0.79 -1.765,1.765 0.001,0.975 0.791,1.765 1.765,1.765 z m -0.994,8.895 0.007,0.115 H 2.563 V 12.708 12.629 9.487 h 0.444 v 3.142 0.079 0.728 h 0.779 l 0.007,-0.115 0.704,0.115 H 5.101 V 12.784 L 4.393,12.629 H 4.271 V 9.487 9.19 8.789 H 4.383 L 4.546,5.607 7.7,4.563 7.427,3.739 4.549,4.692 H 3.415 L 2.743,5.473 2.091,4.692 H 1.438 1.004 0.667 L 0.57,8.13 H 1.175 L 1.207,8.789 H 1.3 V 9.19 9.487 12.629 H 1.18 l -0.709,0.155 v 0.652 h 0.604 z"
   id="path90"
   style="fill:#3771c8" />
<g
   id="g94">
</g>
<g
   id="g96">
</g>
<g
   id="g98">
</g>
<g
   id="g100">
</g>
<g
   id="g102">
</g>
<g
   id="g104">
</g>
<g
   id="g106">
</g>
<g
   id="g108">
</g>
<g
   id="g110">
</g>
<g
   id="g112">
</g>
<g
   id="g114">
</g>
<g
   id="g116">
</g>
<g
   id="g118">
</g>
<g
   id="g120">
</g>
<g
   id="g122">
</g>
</svg>
